<svg xmlns="http://www.w3.org/2000/svg" viewBox="0 0 68.84 103.36"><defs><style>.cls-1{isolation:isolate;}.cls-2{fill:#47292b;}.cls-3{fill:#2e1818;}.cls-4{fill:#f5be94;}.cls-5{fill:#f8e4df;mix-blend-mode:multiply;}.cls-6{fill:#f3ab82;}.cls-7{fill:#362010;}.cls-8{fill:#fff;}.cls-9{fill:#ef7b7f;}.cls-10{fill:#f4aa8a;}.cls-11{fill:#6d4c98;}</style></defs><g class="cls-1"><g id="Capa_1" data-name="Capa 1"><rect class="cls-2" x="8.14" y="30.78" width="54.84" height="60.8"/><rect class="cls-3" x="21.55" y="30.78" width="28.02" height="60.8"/><rect class="cls-2" x="8.14" y="27.25" width="10.28" height="65.95"/><path class="cls-4" d="M41.84,66.61h-15s.38,11.51-1.46,14.85H43.49C41.65,78.12,41.84,66.61,41.84,66.61Z"/><path class="cls-5" d="M26.73,73.68c2.8,1.32,5.62,2.59,8.83,2.28A18.26,18.26,0,0,0,42.05,74c-.27-3.77-.21-7.41-.21-7.41h-15S26.92,70,26.73,73.68Z"/><path class="cls-4" d="M62.28,88,41.35,79.81H27.47L6.54,88S-.79,90.61.07,103.36H68.75C69.75,89.83,62.28,88,62.28,88Z"/><path class="cls-4" d="M53.3,44.74c-.62,3.82.45,7.21,2.39,7.58s4-2.43,4.62-6.25-.45-7.22-2.39-7.58S53.91,40.92,53.3,44.74Z"/><path class="cls-6" d="M55.63,43.71s0-.22.1-.57a7.44,7.44,0,0,1,.47-1.37c.24-.51.63-1.1,1.13-1.13a1,1,0,0,1,.37,0l.19.1a1.3,1.3,0,0,1,.14.12,1.9,1.9,0,0,1,.46.83,4.83,4.83,0,0,1,.23,1.08,5.08,5.08,0,0,1,0,1.1c-.06.38-.07.77-.14,1.11s-.13.66-.19,1-.14.57-.19.82-.13.45-.17.63c-.1.35-.15.55-.15.55s.1-.17.26-.49.18-.35.28-.59l.32-.79c.1-.3.2-.64.3-1A9.06,9.06,0,0,0,59.28,44a4.78,4.78,0,0,0,0-1.31,5.26,5.26,0,0,0-.25-1.29,2.63,2.63,0,0,0-.67-1.12,1.55,1.55,0,0,0-.28-.2L57.87,40a1.42,1.42,0,0,0-.58,0,1.51,1.51,0,0,0-1,.67,3.82,3.82,0,0,0-.46,1,6.9,6.9,0,0,0-.26,1.54A3.82,3.82,0,0,0,55.63,43.71Z"/><path class="cls-6" d="M55.63,43.71s-.18-.41,1.1-.51c0,0,1.42.27.58,2.17a6.19,6.19,0,0,0-.42,1.28c-.13.64.1,1.5-.25,2.07-.44.73-1.56.31-1.63-.52A4.81,4.81,0,0,1,55.92,46,1.71,1.71,0,0,0,55.63,43.71Z"/><path class="cls-6" d="M55,48.11s0,0-.09.11a1,1,0,0,0-.19.36.88.88,0,0,0-.07.27.8.8,0,0,0,0,.31c0,.11,0,.23,0,.34s.07.21.1.32a1.32,1.32,0,0,0,.15.29,2,2,0,0,0,.19.22.82.82,0,0,0,.39.28,1.18,1.18,0,0,0,.43.11,2.86,2.86,0,0,0-.2-.47.87.87,0,0,0-.11-.18,1.89,1.89,0,0,0-.09-.21,1.24,1.24,0,0,0-.1-.2.76.76,0,0,1-.08-.21,2.14,2.14,0,0,1-.16-.42,1.6,1.6,0,0,1,0-.21c0-.07,0-.14,0-.21C55,48.35,55,48.11,55,48.11Z"/><path class="cls-4" d="M16.42,44.74C17,48.56,16,52,14,52.32s-4-2.43-4.62-6.25.45-7.22,2.39-7.58S15.81,40.92,16.42,44.74Z"/><path class="cls-6" d="M14.09,43.71s0-.22-.11-.57a6.63,6.63,0,0,0-.46-1.37c-.25-.51-.64-1.1-1.13-1.13a1,1,0,0,0-.37,0l-.19.1a1.3,1.3,0,0,0-.14.12,1.9,1.9,0,0,0-.46.83A4.83,4.83,0,0,0,11,42.82a4.52,4.52,0,0,0,0,1.1c.06.38.07.77.14,1.11s.13.66.19,1,.14.57.19.82.13.45.17.63c.1.35.15.55.15.55s-.1-.17-.26-.49-.18-.35-.28-.59-.21-.5-.32-.79-.2-.64-.3-1-.16-.72-.24-1.11a5.21,5.21,0,0,1,0-1.31,5.75,5.75,0,0,1,.24-1.29,2.75,2.75,0,0,1,.68-1.12,1.89,1.89,0,0,1,.27-.2l.27-.11a1.42,1.42,0,0,1,.58,0,1.51,1.51,0,0,1,1,.67,3.46,3.46,0,0,1,.45,1,5.91,5.91,0,0,1,.26,1.54A3.29,3.29,0,0,1,14.09,43.71Z"/><path class="cls-6" d="M14.09,43.71s.18-.41-1.1-.51c0,0-1.42.27-.58,2.17a6.19,6.19,0,0,1,.42,1.28c.13.64-.1,1.5.24,2.07a.91.91,0,0,0,1.63-.52A4.69,4.69,0,0,0,13.8,46,1.71,1.71,0,0,1,14.09,43.71Z"/><path class="cls-6" d="M14.7,48.11a.6.6,0,0,1,.1.11,1,1,0,0,1,.19.36.88.88,0,0,1,.07.27,1.06,1.06,0,0,1,0,.31c0,.11,0,.23,0,.34s-.07.21-.1.32a1.32,1.32,0,0,1-.15.29,2,2,0,0,1-.19.22.82.82,0,0,1-.39.28,1.18,1.18,0,0,1-.43.11,2.86,2.86,0,0,1,.2-.47,1.62,1.62,0,0,1,.1-.18l.09-.21c0-.07.07-.14.11-.2a1.31,1.31,0,0,0,.08-.21,2.14,2.14,0,0,0,.16-.42,1.6,1.6,0,0,0,.05-.21c0-.07,0-.14.05-.21A3.07,3.07,0,0,0,14.7,48.11Z"/><path class="cls-4" d="M53.91,13.71s-6.6-7.22-19.57-7.62c-13,.68-19.53,8.15-19.53,8.15C11.28,25.6,13.54,38.93,15,50.46c1.1,8.51,6.83,14.47,14.05,18.61A13.37,13.37,0,0,0,35,70.92a13.47,13.47,0,0,0,5.9-2c7-4.76,12.38-10.63,13.72-19.28a128.55,128.55,0,0,0,1.16-23.28A46.14,46.14,0,0,0,53.91,13.71Z"/><path class="cls-2" d="M28.7,37a14,14,0,0,0-9.43.64c.95-5.12,9.8-3,9.8-3s.59.14.53,1.06C29.6,35.64,29.36,37.21,28.7,37Z"/><path class="cls-2" d="M39.5,37a16,16,0,0,1,10.07.64c-.94-5.12-10.44-3-10.44-3s-.58.14-.52,1.06C38.61,35.64,38.84,37.21,39.5,37Z"/><path class="cls-7" d="M22.82,41.72c0,1.49.84,2.68,1.85,2.68s1.84-1.22,1.83-2.7S25.66,39,24.64,39,22.81,40.24,22.82,41.72Z"/><path class="cls-8" d="M23.93,40.87a.8.8,0,0,1-1.6,0,.8.8,0,1,1,1.6,0Z"/><path class="cls-7" d="M46,41.72c0,1.49-.85,2.68-1.86,2.68s-1.84-1.22-1.83-2.7S43.18,39,44.2,39,46,40.24,46,41.72Z"/><path class="cls-8" d="M44.91,40.87a.8.8,0,0,0,1.6,0,.8.8,0,1,0-1.6,0Z"/><path class="cls-8" d="M29.81,58.45c0,1.44,2,2.6,4.54,2.6s4.54-1.16,4.55-2.6Z"/><path class="cls-9" d="M38.66,58.86a4.74,4.74,0,0,0,1.48-.55,17.69,17.69,0,0,0-1.78-.63c-2.68-1.13-2.5.33-3.92.33-.72,0-1.43-.76-2.1-.66a12.28,12.28,0,0,0-1.83.33,8.9,8.9,0,0,0-1.79.63,5.62,5.62,0,0,0,1.62.62,19,19,0,0,1,2.91.15,4.7,4.7,0,0,0,2,.05,13.57,13.57,0,0,1,3.38-.27"/><path class="cls-9" d="M39.25,58.3A7,7,0,0,1,34,60.37a6.65,6.65,0,0,1-4.42-2.07H28.7a1.45,1.45,0,0,0,.09.22,8.47,8.47,0,0,0,.77,1.34l.52.7a7.73,7.73,0,0,0,.64.64l.35.32.41.28a3.88,3.88,0,0,0,.9.5,8.37,8.37,0,0,0,1,.33l.44.06.23,0h.32l1.06-.13a8.84,8.84,0,0,0,1-.33,3.46,3.46,0,0,0,.88-.5l.41-.27.35-.32a8,8,0,0,0,.65-.65l.51-.69A8.47,8.47,0,0,0,40,58.52a1.45,1.45,0,0,0,.09-.22Z"/><path class="cls-8" d="M34.35,61.73c3.73-.24,4.42-2.41,4.42-2.41a5.36,5.36,0,0,1-4.42,1.8s-.24,0-.24.33C34.11,61.45,34.17,61.75,34.35,61.73Z"/><path class="cls-2" d="M63,33.56S64.12,4.43,41.44.3c0,0-16.09-2.57-22.12,7.4l6,15.28s-.11,5.45,25.1,10.83c0,0,5.16,1.32,5.48,10.95A18,18,0,0,1,63,33.56Z"/><path class="cls-10" d="M31.8,51.85l.1,0,.26-.07.83-.15c.31,0,.65-.09,1-.11s.65,0,1,0l.94.07.46.05.47.06.44.08a2.07,2.07,0,0,1,.37.05,2.71,2.71,0,0,1,.27,0l.1,0a.32.32,0,0,1,0,.09,1.68,1.68,0,0,1-.09.27,2.29,2.29,0,0,1-.5.8,2,2,0,0,1-.46.4,2.19,2.19,0,0,1-.6.33,2.37,2.37,0,0,1-.7.21,3,3,0,0,1-.74.06,3,3,0,0,1-.74-.09,3.39,3.39,0,0,1-1.68-1,2.93,2.93,0,0,1-.53-.76,1.87,1.87,0,0,1-.1-.26Z"/><path class="cls-11" d="M56.42,103.36c-.06-6,.33-12.06,5.17-15.65l-18.1-7.06-9.38,8.64-8.37-8.8L7,87.8c3.54,2,4.58,7.14,4.86,10.87a42.06,42.06,0,0,1,.11,4.69Z"/><path class="cls-2" d="M28.7,22s-14,3-14,22.78c0,0-.6-6.37-4.34-5.5,0,0-10.49-26.33,14.07-33.75Z"/><polygon class="cls-4" points="22.82 17.8 24.06 24.92 25.79 24 22.82 17.8"/></g></g></svg>