<svg id="Слой_1" data-name="Слой 1" xmlns="http://www.w3.org/2000/svg" viewBox="0 0 512 512"><defs><style>.cls-1{fill:#fff;}</style></defs><path class="cls-1" d="M500,197.7l-39.35-8.55a214,214,0,0,0-12.66-30.54l21.78-33.89a15.3,15.3,0,0,0-2.05-19.09l-61.3-61.3a15.3,15.3,0,0,0-19.09-2L353.39,64.06A214,214,0,0,0,322.85,51.4L314.3,12.05A15.31,15.31,0,0,0,299.35,0h-86.7a15.31,15.31,0,0,0-15,12.05L189.15,51.4a214,214,0,0,0-30.54,12.66L124.72,42.28a15.3,15.3,0,0,0-19.09,2l-61.3,61.3a15.3,15.3,0,0,0-2,19.09l21.78,33.89A214,214,0,0,0,51.4,189.15L12.05,197.7a15.31,15.31,0,0,0-12,15v86.7A15.31,15.31,0,0,0,12.05,314.3l39.35,8.55a214,214,0,0,0,12.66,30.54L42.28,387.28a15.3,15.3,0,0,0,2,19.09l61.3,61.3a15.3,15.3,0,0,0,19.09,2.05l33.89-21.78a214,214,0,0,0,30.54,12.66L197.7,500a15.31,15.31,0,0,0,15,12.05h86.7A15.31,15.31,0,0,0,314.3,500l8.55-39.35a214,214,0,0,0,30.54-12.66l33.89,21.78a15.3,15.3,0,0,0,19.09-2.05l61.3-61.3a15.3,15.3,0,0,0,2.05-19.09l-21.78-33.89a214,214,0,0,0,12.66-30.54L500,314.3A15.31,15.31,0,0,0,512,299.35v-86.7A15.31,15.31,0,0,0,500,197.7ZM258.2,367.64C185.48,390.46,120.05,270.58,147,220c23.36-43.77,70.31-92.22,129.13-81.89,41.44,7.27,74.54,56.37,100,99.3C379.82,243.64,330.8,344.85,258.2,367.64Z"/><path class="cls-1" d="M256,133.61A122.39,122.39,0,1,0,378.39,256,122.54,122.54,0,0,0,256,133.61Zm0,214.18A91.79,91.79,0,1,1,347.79,256,91.9,91.9,0,0,1,256,347.79Z"/></svg>