<svg id="Слой_2" data-name="Слой 2" xmlns="http://www.w3.org/2000/svg" viewBox="0 0 592.64 247.22"><defs><style>.cls-1{fill:#fff;}.cls-2{fill:#262525;}.cls-3{fill:#005693;}</style></defs><g id="Layer_1" data-name="Layer 1"><path class="cls-1" d="M109.42,238a10.72,10.72,0,0,0,1.69-2.94,9.89,9.89,0,0,0,.38-1.55l.05-.12c1.18-2.09,2.33-4.34,3.41-6.68l0-.11.1-.08c19.82-15,28.44-36.44,31.28-43.49l.29-.74.06-.07a.18.18,0,0,0,.05-.07l.11-.14c10.64-10.07,15.12-17.44,19.26-26.75a35,35,0,0,0,.87-26l-.08-.21.1-.2a22.41,22.41,0,0,0,1.75-17.49l0-.19.09-.18c2.06-3.87,8.78-17.81,8.78-34.64a60.76,60.76,0,0,0-9.06-31.88,82.08,82.08,0,0,0-22.39-23.67C129.35,8.59,107.5.82,89.13.5h-.19C70.6.82,48.76,8.59,32,20.79A82.22,82.22,0,0,0,9.56,44.46,60.76,60.76,0,0,0,.5,76.34C.5,93.17,7.22,107.11,9.28,111l.1.18-.06.19a22.41,22.41,0,0,0,1.75,17.49l.1.2-.08.21a35,35,0,0,0,.87,26c4.13,9.3,8.61,16.66,19.23,26.72l.06.08.12.14.06.07.31.76c2.83,7.05,11.45,28.5,31.27,43.49l.1.08,0,.11c1,2.22,2.12,4.37,3.25,6.39l.06.14c.1.47.45,2.1.91,4.48,2,2,8.66,8.47,19,9.28C99.77,248,108.63,239,109.42,238Z"/><path class="cls-2" d="M111.74,234.55l.12-.45c0-.19.08-.34.11-.46,1.13-2,2.28-4.23,3.43-6.72,19.94-15.07,28.59-36.6,31.44-43.71.1-.23.18-.45.27-.66a1,1,0,0,0,.12-.17c10.69-10.12,15.22-17.56,19.38-26.92s3.5-19.87.88-26.4a22.92,22.92,0,0,0,1.78-17.84c1.84-3.46,8.84-17.74,8.84-34.88A61.18,61.18,0,0,0,169,44.21a82.85,82.85,0,0,0-22.52-23.83C129.57,8.13,107.62.32,89.14,0h-.2C70.49.32,48.54,8.13,31.66,20.38A82.75,82.75,0,0,0,9.13,44.21,61.18,61.18,0,0,0,0,76.34c0,17.14,7,31.42,8.84,34.88a22.92,22.92,0,0,0,1.78,17.84C8,135.59,7.3,146,11.5,155.46s8.68,16.78,19.34,26.88a1.56,1.56,0,0,0,.16.2c.09.21.17.43.27.67,2.86,7.11,11.51,28.64,31.44,43.71,1.09,2.37,2.19,4.5,3.27,6.42a9.7,9.7,0,0,0,.33,1.6c2.29,7.67,13.75,12.23,23.11,12.06C104.11,246.74,111.66,234.89,111.74,234.55Zm32.45-54.8c-.47.3-.92.68-1.33,1a54.26,54.26,0,0,0-14.57,16.06,45.78,45.78,0,0,1,9-8.29c1.37-1,2.78-1.89,4.21-2.76-3.47,8.06-10.61,22.35-23.65,34,1.78-2.16,3.52-4.34,5.16-6.62a100,100,0,0,0,7.8-12.59c1.34-2.58,2.55-5.23,3.69-7.91a133.57,133.57,0,0,1-8.65,13.27c-1.58,2.11-3.25,4.15-5,6.09-.92,1-1.87,2-2.83,2.91l-.28.28v0q2.11-2.78,4-5.71a49.14,49.14,0,0,0,3.9-7.16,50.15,50.15,0,0,1-7.07,8.45l0,0q.49-2.75,1-5.48l-.06.15q-1.69,4.49-3.41,9-1.92,5.06-3.85,10.1l-.11.27s0,0,0,0c-4.15,9.1-8.25,14.57-10.85,16.86a65.75,65.75,0,0,0,4.92-9.36,107.17,107.17,0,0,0,4.88-13.13,106.07,106.07,0,0,1-6.92,14c-2.22,3.78-4.71,7.74-8,10.66l-.27,0,0,0a30.66,30.66,0,0,0,2.36-3.61,52.89,52.89,0,0,0,3.73-8.31,50.73,50.73,0,0,1-5.68,8.32,18.87,18.87,0,0,1-3.15,3,4.73,4.73,0,0,1-1.53.83c-.86,0-1.59-.08-2.08-.14l-.25,0H89l-.25,0c-.48.06-1.18.12-2,.14a2.88,2.88,0,0,1-.85-.35,9,9,0,0,1-1.63-1.19,25.54,25.54,0,0,1-3-3.18,53,53,0,0,1-5-7.47,51.49,51.49,0,0,0,4.27,9.23,28.59,28.59,0,0,0,1.81,2.73l-.21,0q-.57-.49-1.11-1a53.06,53.06,0,0,1-7.79-11.1,105.51,105.51,0,0,1-6.06-12.53,104.48,104.48,0,0,0,5.59,14.71,64.31,64.31,0,0,0,4.08,7.68c-2.6-2.35-6.64-7.8-10.73-16.76h0c-.12-.35-.27-.68-.39-1q-2.09-5.44-4.16-10.9c-1-2.53-1.93-5-2.89-7.58l0,.16c.31,1.77.63,3.54.94,5.32l0,0a49.63,49.63,0,0,1-7.06-8.45,50.05,50.05,0,0,0,3.89,7.16q1.88,2.94,4,5.71v0l-.28-.28c-1-.95-1.91-1.92-2.83-2.91-1.78-1.94-3.45-4-5-6.09a133.57,133.57,0,0,1-8.65-13.27c1.14,2.68,2.35,5.33,3.69,7.91a100,100,0,0,0,7.8,12.59c1.64,2.28,3.39,4.46,5.16,6.62-13.08-11.69-20.22-26-23.68-34.07a49.54,49.54,0,0,1,13.2,11.11,46.24,46.24,0,0,0-7.42-9.73,63,63,0,0,0-8.3-7.18L34,179.8c-10.51-9.88-14.73-16.75-18.82-26-3.86-8.68-3-18.46-.55-23.92.16-.32.29-.66.44-1,.26-.52.54-1,.83-1.54,5.12-8.75,15.44-13.19,25.36-12.59a30.28,30.28,0,0,0-7.9-.37,24.1,24.1,0,0,0-3.61.33c-2.79.41-6.44,1.31-8.43-1.34a5.39,5.39,0,0,1-1-3.3c.1-.61.19-1.23.26-1.84a33.84,33.84,0,0,0,.11-7.46A39.61,39.61,0,0,0,19.27,94,136.23,136.23,0,0,1,15.73,80a36.21,36.21,0,0,1,0-14.37c1-4.3,3.24-8.17,5.39-12a75.94,75.94,0,0,0-4.56,7.2,28.61,28.61,0,0,0-2.74,7.85,46.22,46.22,0,0,0,0,15.3c.37,2.58.86,5.13,1.38,7.68a64.41,64.41,0,0,1,1.28,7.68,28.94,28.94,0,0,1-.45,7.66c-.48,2.52-1.2,5-1.82,7.47a54.7,54.7,0,0,0-1.41,9.69,19,19,0,0,1,0-12.6.8.8,0,0,0,0-.15,1.21,1.21,0,0,0,.05-.18,19.23,19.23,0,0,0,.52-3.11,36.71,36.71,0,0,0-1.39-12.28A91.28,91.28,0,0,0,8,84a82.15,82.15,0,0,1,2.54,14.5,36.52,36.52,0,0,1-.09,6.53l0,.2C7.84,99.3,4,88.47,4,76.34,4,50.76,20.32,33.55,34,23.62,50.26,11.82,71.34,4.31,89,4h.14c17.66.31,38.74,7.82,55,19.62,13.69,9.93,30,27.14,30,52.72,0,12.16-3.85,23-6.44,28.94a37.09,37.09,0,0,1,0-8.36A87.48,87.48,0,0,1,170.12,84a85.23,85.23,0,0,0-4.48,13.36,32.08,32.08,0,0,0-.82,12.41,8.59,8.59,0,0,0,.47,2.07,19,19,0,0,1,0,12.37,54.7,54.7,0,0,0-1.41-9.69c-.62-2.49-1.34-5-1.81-7.47a28.94,28.94,0,0,1-.45-7.66,64.38,64.38,0,0,1,1.27-7.68c.52-2.55,1-5.1,1.38-7.68a46,46,0,0,0,0-15.3,28.61,28.61,0,0,0-2.74-7.85,75.94,75.94,0,0,0-4.56-7.2c2.15,3.82,4.36,7.69,5.39,12a36.21,36.21,0,0,1,0,14.37A136.23,136.23,0,0,1,158.84,94a41.55,41.55,0,0,0-1.39,6.9,35.11,35.11,0,0,0,.11,7.46c.08.61.17,1.23.26,1.84a5.45,5.45,0,0,1-1,3.3c-2,2.65-5.64,1.75-8.43,1.34a24.77,24.77,0,0,0-3.66-.33,30,30,0,0,0-7.85.37,29.55,29.55,0,0,1,16.55,3.86A24.49,24.49,0,0,1,163.1,129c.11.24.22.47.34.7,0,0,0,.06,0,.09,2.48,5.44,3.38,15.28-.5,24C158.87,163,154.66,169.89,144.19,179.75Z"/><path class="cls-2" d="M76.05,176.72a12.51,12.51,0,0,1-1,5.17l-.15.42c3.63-4,4.51-9.86,4.29-15.08a43.17,43.17,0,0,0-.67-5.78c-.11-.58-.21-1.17-.35-1.76a33.64,33.64,0,0,0-16.9-23.37A40.93,40.93,0,0,0,39.41,131a2.83,2.83,0,0,0-.71-.05c-.51,0-1,0-1.53.05a57.21,57.21,0,0,0-8.53,1.19,22.65,22.65,0,0,0-7.72,2.71c-2.25,1.48-2.85,4.4-2.85,6.93a14.93,14.93,0,0,0,3.09,9.37,16.93,16.93,0,0,1-1-3.11c-.59-2.69-.57-6.36,1.58-8.42a2.82,2.82,0,0,1,.84-.55c-1.23,6,.13,20.2,14.77,31.45a37.36,37.36,0,0,0,28.15,7.51,34.68,34.68,0,0,1-19.4,1,36.91,36.91,0,0,0,16.55,2.26A29.48,29.48,0,0,0,76,176.73Zm-2.85-5.94c1.22-1,1.69-2.47,2.33-3.82a4.72,4.72,0,0,1-1.4,5,5.3,5.3,0,0,1-5.18.49C70.38,172,72,171.75,73.2,170.78Zm-16.37-29A2.18,2.18,0,1,1,54.74,144,2.18,2.18,0,0,1,56.83,141.78Zm-15.41-4.9c4.88.27,8.94,2.9,9,5.88s-3.74,5.17-8.62,4.89-8.94-2.9-9.06-5.87S36.54,136.61,41.42,136.88Zm-7,24.71a29.19,29.19,0,0,1-4.4-6.9,54.56,54.56,0,0,0,10.31,10,52.27,52.27,0,0,0,12.92,6.83c2.67,1,5.41,1.78,8.16,2.53A36.06,36.06,0,0,1,34.39,161.59Z"/><path class="cls-2" d="M23.15,131.09a34.51,34.51,0,0,1,6.64-1.81c8.08-1.46,16.55-1.45,24.42,1.07a44,44,0,0,1,19.6,13.13,35.78,35.78,0,0,0-8.84-10,39.77,39.77,0,0,0-23.83-8.16,41,41,0,0,0-13.53,1.83,22.23,22.23,0,0,0-5.8,2.81,9.19,9.19,0,0,0-3.74,4.6A11.6,11.6,0,0,1,23.15,131.09Z"/><path class="cls-2" d="M74.68,130.32a36.61,36.61,0,0,1,2.76,4.58c.92,1.81,1.72,3.68,2.62,5.5a30.9,30.9,0,0,0-1.8-7,28.3,28.3,0,0,0-5.54-8.68,23.84,23.84,0,0,0-16.32-7.19,45.44,45.44,0,0,1,8.89,3.83A31,31,0,0,1,74.68,130.32Z"/><path class="cls-2" d="M74.43,198.1c.74-1.3,1.57-2.55,2.42-3.79,1.66-2.45,3.38-5.09,3.35-8.17a22.43,22.43,0,0,1-2.13,3.91c-.88,1.28-1.84,2.5-2.71,3.79a16.19,16.19,0,0,0-3,8.46C73,200.89,73.66,199.46,74.43,198.1Z"/><path class="cls-2" d="M78.14,185.05c-1.73,2.7-3.85,5-5.78,7.59a10.56,10.56,0,0,0,3.78-3.11A8.29,8.29,0,0,0,78.14,185.05Z"/><path class="cls-2" d="M84,190.87a25.81,25.81,0,0,0-2.65,1.41c-1.18.67-2.52,1.9-2.19,3.41a2.35,2.35,0,0,0,3.48,1.51,7,7,0,0,0,2.89-3.37c.29-.63,1.16-2.45.37-3A1.93,1.93,0,0,0,84,190.87Z"/><path class="cls-2" d="M73.69,215.29a17.83,17.83,0,0,1,1.65-3.37c-3,.56-4.5,4.92-2.25,7.08A16.14,16.14,0,0,1,73.69,215.29Z"/><path class="cls-2" d="M94,109.54a25.8,25.8,0,0,1-4.27.84,13.78,13.78,0,0,1-4-.45c-1.72-.39-3.42-.88-5.12-1.36a86.12,86.12,0,0,0-16.2-3.4,30.09,30.09,0,0,0-12.23,1.16,45.73,45.73,0,0,1,16.1,1.87c4.55,1.26,9,2.86,13.51,4.23a26,26,0,0,0,7.3,1.48,25.71,25.71,0,0,0,7.29-1.49c9.67-2.91,19.29-7,29.61-6.09-6.13-2.12-13-1.39-19.18-.11C102.46,107.1,98.27,108.44,94,109.54Z"/><path class="cls-2" d="M92.33,101.18a24.55,24.55,0,0,1-7.46-.14c-2.64-.43-5.23-1.12-7.88-1.53a33.33,33.33,0,0,0-8-.43c3,.69,5.91,1.49,8.81,2.42a57.47,57.47,0,0,0,7.84,2.13,21.75,21.75,0,0,0,8-.22c2.62-.54,5.16-1.45,7.72-2.23s5.18-1.49,7.8-2.1a35.24,35.24,0,0,0-9,.59C97.55,100.13,95,100.82,92.33,101.18Z"/><path class="cls-2" d="M155.56,139.11a2.59,2.59,0,0,1,.84.55c2.15,2.06,2.17,5.73,1.58,8.42a16.93,16.93,0,0,1-1,3.11,14.93,14.93,0,0,0,3.09-9.37c0-2.53-.6-5.45-2.85-6.93a22.65,22.65,0,0,0-7.72-2.71,57,57,0,0,0-8.53-1.19c-.51,0-1-.05-1.53-.05a2.75,2.75,0,0,0-.7.05,40.94,40.94,0,0,0-21.91,5.33,33.7,33.7,0,0,0-16.9,23.37c-.13.59-.24,1.18-.35,1.76a43.15,43.15,0,0,0-.66,5.78c-.23,5.22.66,11.06,4.29,15.08-.06-.14-.1-.28-.15-.42a12.19,12.19,0,0,1-1-5.17c.49.33,1,.64,1.51.93,8.53,4.87,19.43,4.88,28.46,1.41a35.7,35.7,0,0,1-16.73-.17c-.87-.23-1.71-.5-2.54-.8a37.32,37.32,0,0,0,28-7.53C155.44,159.31,156.79,145.13,155.56,139.11ZM135.4,137.5a2.18,2.18,0,1,1-1.52,2.68A2.18,2.18,0,0,1,135.4,137.5Zm-30.49,33.28c1.22,1,2.82,1.19,4.25,1.68A5.28,5.28,0,0,1,104,172a4.68,4.68,0,0,1-1.4-5C103.23,168.31,103.69,169.82,104.91,170.78Zm8.72-21.25c-.79-2.87,2.27-6.61,6.84-8.35s8.91-.82,9.71,2-2.28,6.6-6.84,8.35S114.42,152.4,113.63,149.53Zm13.13,22.93a33.71,33.71,0,0,1-8.35,1.35,76.85,76.85,0,0,0,13.25-5.27,50.48,50.48,0,0,0,11.09-8,63.2,63.2,0,0,0,5.37-5.85C144.27,163.48,135.84,169.84,126.76,172.46Z"/><path class="cls-2" d="M122.6,128.1a37.07,37.07,0,0,0-18.3,15.38,46,46,0,0,1,10.22-8.8,43.22,43.22,0,0,1,22.79-6.38,59.33,59.33,0,0,1,12.61,1.3c3.55.76,7.82,1.93,10.12,5-.66-2.22-2.56-3.89-4.46-5.08a24.34,24.34,0,0,0-6.65-2.8,43,43,0,0,0-13.6-1.3A40.53,40.53,0,0,0,122.6,128.1Z"/><path class="cls-2" d="M100.83,134.59a35.11,35.11,0,0,1,6.21-8.66,28.65,28.65,0,0,1,6.62-5,47.94,47.94,0,0,1,8-3.34,24.59,24.59,0,0,0-10.49,2.77,24.16,24.16,0,0,0-9.32,9,30.67,30.67,0,0,0-3.85,11c.66-1.32,1.19-2.7,1.87-4C100.23,135.79,100.53,135.19,100.83,134.59Z"/><path class="cls-2" d="M101.26,194.31c.85,1.24,1.69,2.49,2.42,3.79s1.41,2.79,2.07,4.2a16.08,16.08,0,0,0-3-8.46c-.86-1.29-1.83-2.51-2.7-3.79a22.43,22.43,0,0,1-2.13-3.91C97.89,189.21,99.6,191.86,101.26,194.31Z"/><path class="cls-2" d="M105.75,192.64c-1.92-2.55-4-4.89-5.78-7.59a8.29,8.29,0,0,0,2,4.48A10.56,10.56,0,0,0,105.75,192.64Z"/><path class="cls-2" d="M92.25,190.8c-.79.58.07,2.4.36,3a7,7,0,0,0,2.9,3.37A2.36,2.36,0,0,0,99,195.69c.32-1.51-1-2.74-2.19-3.41a28.07,28.07,0,0,0-2.65-1.41A1.93,1.93,0,0,0,92.25,190.8Z"/><path class="cls-2" d="M98.71,217a4.92,4.92,0,0,0,1.53-.55c.55-.27,1-.35,1.24.28a5.25,5.25,0,0,1,.35,1.53,4.78,4.78,0,0,0,.31-3.76,2.11,2.11,0,0,0-.9-1.41,2.9,2.9,0,0,1-3.08,2.37c-2.11-.06-3.82-1.81-6-1.12a17.24,17.24,0,0,1-2.82,1.08,5.57,5.57,0,0,1-2.87-.82,4.11,4.11,0,0,0-2.82-.3c-1.06.27-2,.8-3.1,1.05a3,3,0,0,1-3.84-2.26c-.77.37-1,1.59-1.09,2.35a4.52,4.52,0,0,0,.5,2.82c.09-.64.21-2.28,1.18-2,.42.12.79.4,1.2.55a3.75,3.75,0,0,0,1.91.15,10.43,10.43,0,0,1,2.95-.25,9.77,9.77,0,0,1,2.88.91,7.43,7.43,0,0,0,5,.18c.81-.27,1.54-.73,2.38-.93a7.53,7.53,0,0,1,3.17-.06A5.41,5.41,0,0,0,98.71,217Z"/><path class="cls-2" d="M98.09,221.08a5.75,5.75,0,0,1-4.36,1.29,45.66,45.66,0,0,0-4.67-.51,43.19,43.19,0,0,0-4.68.51A5.75,5.75,0,0,1,80,221.08c1.51,3.75,5.84,2.78,9,2.78S96.57,224.83,98.09,221.08Z"/><path class="cls-2" d="M84.65,229.82c1.48-.06,2.93-.56,4.41-.56s2.92.5,4.4.56a5.74,5.74,0,0,0-8.81,0Z"/><path class="cls-2" d="M102.77,211.92a17.29,17.29,0,0,1,1.66,3.37A16.69,16.69,0,0,1,105,219C107.27,216.84,105.74,212.48,102.77,211.92Z"/><path class="cls-2" d="M151.38,167.07a140.5,140.5,0,0,1-10.48,12.12,49,49,0,0,0,6.86-5.68,58.65,58.65,0,0,0,9.58-12.15,43.45,43.45,0,0,0,3.38-7.09,35.24,35.24,0,0,0,1.88-7.9c-.76,2.18-1.51,4.33-2.48,6.44A77.24,77.24,0,0,1,151.38,167.07Z"/><path class="cls-2" d="M31.12,172.79a94.91,94.91,0,0,1-9.2-12.3,62.23,62.23,0,0,1-3.68-6.76,67,67,0,0,1-2.72-7.36,34.23,34.23,0,0,0,1.65,7.79A47.4,47.4,0,0,0,25.9,169a51.39,51.39,0,0,0,11.31,10.17C35.12,177.12,33.05,175,31.12,172.79Z"/><path class="cls-2" d="M76.29,40.56a6.3,6.3,0,0,0,4.39,1.75,14.47,14.47,0,0,0,5.19-.64c1.66-.52,3.18-1.25,4.95-1.24s3.4.33,5-.2a5.62,5.62,0,0,0,3.31-2.83c1.27-2.72-.16-7.07-3.57-7.25a4.6,4.6,0,0,1,2,7.12c-2.08,2.48-5.35,1-8.08,1.29a20.48,20.48,0,0,0-4.11,1.17,13.47,13.47,0,0,1-4.58.68c-1.18,0-2.77-.19-3.5-1.26A4.1,4.1,0,0,1,77,36a8.45,8.45,0,0,1,5.32-6,7.45,7.45,0,0,0-4.82,2.65,7.61,7.61,0,0,0-2.12,4.89A4.4,4.4,0,0,0,76.29,40.56Z"/><path class="cls-2" d="M130.59,35.81a8.56,8.56,0,0,0,3.21.86,4.2,4.2,0,0,0,3.13-.94c1.61-1.68-.7-4.19-2-5.22a11.25,11.25,0,0,1,1.29,2.74,1.7,1.7,0,0,1,0,1.33,1.42,1.42,0,0,1-1,.42c-1.73.27-3.49-.63-4.9-1.55a16.59,16.59,0,0,1-3.93-3.64c-.94-1.2-2-2.89-1.52-4.49.47-1.45,2.52-2.09,3.37-.58a2.09,2.09,0,0,0-2.61-1.48,3.19,3.19,0,0,0-2.15,2.13c-.72,2.18.55,4.51,1.86,6.19A14.61,14.61,0,0,0,130.59,35.81Z"/><path class="cls-2" d="M48.06,24a6,6,0,0,0,4.21-1c1.12-.72,2.42-1.93,2.57-3.34A1.59,1.59,0,0,0,54,18a1.34,1.34,0,0,0-1.76.67,1.17,1.17,0,0,1,1.24-.15c.42.26.32.78.12,1.15a6.36,6.36,0,0,1-2.23,2.08,7.56,7.56,0,0,1-3,1.16,1.35,1.35,0,0,1-1.33-.4,1.08,1.08,0,0,1,0-1.19,1.29,1.29,0,0,0-.49,1.79A2,2,0,0,0,48.06,24Z"/><path class="cls-2" d="M70.74,24.05a10.87,10.87,0,0,0,4.35-1.33c1.16-.71,2.28-1.89,2-3.35A1.82,1.82,0,0,0,76,17.91a1.31,1.31,0,0,0-1.6.58,1.13,1.13,0,0,1,1.57.1,1.49,1.49,0,0,1,0,1.72c-.76,1.17-2.49,1.67-3.76,2-.83.19-1.66.33-2.5.47a4.19,4.19,0,0,1-2,.05c-1.57-.51-.11-2.38.47-3.06a3.63,3.63,0,0,0-1.77,1.53,1.86,1.86,0,0,0,.27,2.15C67.66,24.49,69.43,24.21,70.74,24.05Z"/><path class="cls-2" d="M85.91,14.14c1.15,1,3.07.83,4.43.44s2.93-1.29,2.71-2.83a1.62,1.62,0,0,0-1.23-1.37c-.18,0-.65,0-.76.18s.22.33.51.34a.58.58,0,0,1,.23.18.87.87,0,0,1,0,1.11,4.15,4.15,0,0,1-2.57,1.1,4.07,4.07,0,0,1-2.86-.18c-.64-.46-.59-1.56.33-1.61-.65-.41-1.41.31-1.52.92A1.88,1.88,0,0,0,85.91,14.14Z"/><path class="cls-2" d="M109.08,18c.82.42,1.67.81,2.52,1.19,1.17.52,2.55,1.2,3.86.79a2,2,0,0,0,1.36-1.23,1.27,1.27,0,0,0-.63-1.55,1.09,1.09,0,0,1-.08,1.49,1.78,1.78,0,0,1-1.69.21,27.71,27.71,0,0,1-3.57-1.7l-.8-.37c-.5-.22-1.41-.48-1.63-1.06s.27-.94.65-1.13a4.64,4.64,0,0,1,2.22-.22c-1.27-.68-3.21-1-4,.59C106.69,16.39,108,17.43,109.08,18Z"/><path class="cls-2" d="M46,42.53a9.9,9.9,0,0,0,4-2.26,7.2,7.2,0,0,0,2.21-3.79c.29-1.77-1.33-2.49-2.69-3a8.65,8.65,0,0,1,1.38,1.82c.25.7-.34,1.48-.74,2a9.31,9.31,0,0,1-3.3,2.77,10.41,10.41,0,0,1-4.51,1.28,2,2,0,0,1-1.83-.81,2.45,2.45,0,0,1-.1-2.13,2.53,2.53,0,0,0,.71,4.14A7.06,7.06,0,0,0,46,42.53Z"/><path class="cls-2" d="M60.25,56.52a6.54,6.54,0,0,0,4.86.44,2.27,2.27,0,0,0,1.69-1.38c.2-.62.16-1.73-.57-2a1.44,1.44,0,0,1-.36,1.62,1.7,1.7,0,0,1-1.25.26A11.26,11.26,0,0,1,62,55.11a3.34,3.34,0,0,1-2.21-2.26c-.28-.92-.15-2.67,1-2.91-.75-.4-1.61.31-2,.9a3.61,3.61,0,0,0-.62,2.24A4.37,4.37,0,0,0,60.25,56.52Z"/><path class="cls-2" d="M103.71,55.39c-.06,3.33-4.95,4-7.45,4-1.52,0-3.44-.21-4.33-1.64a2,2,0,0,1,.85-2.9,2.19,2.19,0,0,0-2,1.9,3.32,3.32,0,0,0,.93,2.75c1.35,1.49,3.63,1.83,5.54,1.81a10.07,10.07,0,0,0,6-1.78,4.42,4.42,0,0,0,1.74-4.93,3.58,3.58,0,0,0-4.26-2.39A3.29,3.29,0,0,1,103.71,55.39Z"/><path class="cls-2" d="M113.56,44.46c-2,1.26-1.93,4.23-.53,5.9s3.78,2.06,5.82,1.78a13.39,13.39,0,0,0,6-2.82c1.61-1.21,3.7-2.62,4.19-4.71.41-1.79-.92-4.48-3.09-4.12a2.71,2.71,0,0,1,2,2,2.81,2.81,0,0,1-.69,2.64,15.38,15.38,0,0,1-3,2.3A18.66,18.66,0,0,1,119.54,50c-1.76.57-4.14.66-5.6-.68A3.73,3.73,0,0,1,113.56,44.46Z"/><path class="cls-2" d="M140.54,51.35a4.53,4.53,0,0,0,4.42.47,3,3,0,0,0,1.54-1.71c.21-.68.17-1.72-.57-2.09a1.82,1.82,0,0,1-1.37,2.26,3.79,3.79,0,0,1-2.95-.61c-.81-.48-1.94-1-2.34-1.91a1.6,1.6,0,0,1,1.07-2.2,1.75,1.75,0,0,0-2,.54,2.45,2.45,0,0,0-.6,1.87C137.92,49.55,139.3,50.59,140.54,51.35Z"/><path class="cls-2" d="M43.56,58.62A4.22,4.22,0,0,0,47.4,58a2.15,2.15,0,0,0,.82-1.58c0-.6-.34-1.37-1-1.45a1.18,1.18,0,0,1-.78,1.82A4,4,0,0,1,44,56.66a2.56,2.56,0,0,1-1.45-3.84c-1.38.24-1.89,2-1.63,3.18A3.73,3.73,0,0,0,43.56,58.62Z"/><path class="cls-2" d="M53.93,67.76a1.28,1.28,0,0,1-.1-2.27c-.88-.31-1.68.64-1.82,1.41A2.12,2.12,0,0,0,53.11,69c1.59.9,3.92-.38,3.53-2.33C56,67.48,55,68.23,53.93,67.76Z"/><path class="cls-2" d="M28.16,36.07A2.59,2.59,0,0,1,27,38.6c-.94.52-1.71-.18-1.53-1.2A1.44,1.44,0,0,0,25,39.28a1.81,1.81,0,0,0,2.14.88C28.76,39.74,29.89,37.15,28.16,36.07Z"/><path class="cls-2" d="M151.22,39.08a1.43,1.43,0,0,0,.35-1.79c-.31.88-1.25,1.24-1.84.42a2.55,2.55,0,0,1,.14-2.9c-2.07.11-2.33,3-1,4.15A1.78,1.78,0,0,0,151.22,39.08Z"/><path class="cls-2" d="M79.84,68.82a2.76,2.76,0,0,0,4.76.83,2.26,2.26,0,0,0,.17-2.58,2.18,2.18,0,1,1-4.27-.68A2.24,2.24,0,0,0,79.84,68.82Z"/><path class="cls-2" d="M64.5,38.48a2.72,2.72,0,0,0,2.67-1,2.25,2.25,0,0,0,.18-2.58,2.18,2.18,0,1,1-4.27-.68,2.23,2.23,0,0,0-.66,2.43A2.66,2.66,0,0,0,64.5,38.48Z"/><path class="cls-2" d="M117.22,66.79a3.05,3.05,0,0,0,3,.87,3,3,0,0,0,2.13-1.81c.3-.86-.15-2.48-1.36-2.23a1.19,1.19,0,0,1,.37,1.65,2.28,2.28,0,0,1-1.78,1,2.34,2.34,0,0,1-2.45-2.57A2.39,2.39,0,0,0,117.22,66.79Z"/><path class="cls-2" d="M108.09,34.93a3.08,3.08,0,0,0,3,.88A3,3,0,0,0,113.18,34c.3-.86-.15-2.49-1.36-2.24a1.2,1.2,0,0,1,.37,1.66A2.34,2.34,0,0,1,108,31.81,2.39,2.39,0,0,0,108.09,34.93Z"/><path class="cls-2" d="M96.49,80.53a2.48,2.48,0,0,0,2.45,1.68,3.54,3.54,0,0,0,2.9-1.7,2.63,2.63,0,0,0,.26-1.65c-.1-.51-.4-1.25-1-1.33a1.85,1.85,0,0,1-.07,2,2.69,2.69,0,0,1-1.89,1.13,1.46,1.46,0,0,1-1.69-1,2.27,2.27,0,0,1,.06-2.23C96.31,77.65,96.2,79.66,96.49,80.53Z"/></g><path class="cls-3" d="M204.41,108.24l-.38-.68a4.79,4.79,0,0,1-.93-2.16,3,3,0,0,1,1.43-2.45,4.63,4.63,0,0,1,2.61-1,13,13,0,0,1,1.35.09c.54.08.88.12,1,.12a92.2,92.2,0,0,1,12.13-1.35q6.54,0,10.33,3.09a9.47,9.47,0,0,1,3.79,7.63,11.79,11.79,0,0,1-3.73,8.23,27.85,27.85,0,0,1-10,6.39,148.13,148.13,0,0,0,15.82,11.6,3.37,3.37,0,0,1,1.91,2.93,3.24,3.24,0,0,1-1.34,2.34,3.87,3.87,0,0,1-2.5,1.18,7.18,7.18,0,0,1-3.87-1.47c-1.44-1-3.48-2.51-6.12-4.61s-4.16-3.36-4.57-3.77a84.66,84.66,0,0,0-8-6.18c-2.07,0-3.1-1-3.1-3.08a3,3,0,0,1,1.37-2.47,5.11,5.11,0,0,1,3.14-1,4.37,4.37,0,0,1,1.08.15,3.39,3.39,0,0,0,.79.17q1.88,0,7-3.13t5.06-7.24a4.22,4.22,0,0,0-2.12-3.52,9.37,9.37,0,0,0-5.4-1.46,34.1,34.1,0,0,0-6.29.47,11.4,11.4,0,0,0-2.61.66,2.72,2.72,0,0,0-.52.92,53.24,53.24,0,0,0-1.29,6q-1,5.3-1.8,11.6a79.69,79.69,0,0,0-.82,9.3,17.85,17.85,0,0,0,.29,3.43,16.46,16.46,0,0,1,.26,2.64,3.36,3.36,0,0,1-1.24,2.27,3.84,3.84,0,0,1-2.71,1.22q-4.08,0-4.08-5.63a111.25,111.25,0,0,1,1-12.8q1-8.23,2.38-14.48c.14-.66.26-1.25.35-1.78Z"/><path class="cls-3" d="M269.42,133.46q0,3-5.12,7.28A17.67,17.67,0,0,1,252.73,145a10,10,0,0,1-7.8-3.12q-2.84-3.12-2.84-8.69a24,24,0,0,1,5.8-15.38q5.81-7.19,12.39-7.18a7,7,0,0,1,7.27,7q0,5.1-4.89,9.71a26.58,26.58,0,0,1-12.54,6.38,1,1,0,0,0-.88,1.05,3.81,3.81,0,0,0,1.24,2.68,4.44,4.44,0,0,0,3.33,1.28q5.88,0,11.69-6.07a3.1,3.1,0,0,1,2.17-1.17C268.84,131.5,269.42,132.15,269.42,133.46Zm-19.65-5.18a17.92,17.92,0,0,0,8.16-4q3.52-3,3.53-5.48a2.48,2.48,0,0,0-.55-1.62,1.71,1.71,0,0,0-1.39-.66q-2.55,0-5.65,3.75A19.37,19.37,0,0,0,249.77,128.28Z"/><path class="cls-3" d="M282,141.81a3,3,0,0,1-3.37,3q-3.84,0-3.84-5.54a104.43,104.43,0,0,1,1-15.32,63.6,63.6,0,0,0,.76-9.73,2.61,2.61,0,0,1,2.79-2.69q4.4,0,4.39,5.33a61.28,61.28,0,0,1-1.55,8.82,31.68,31.68,0,0,0-.94,6.12q8.38-18.39,15.12-18.4a5.27,5.27,0,0,1,4.38,2.17q1.65,2.18,1.71,9.61,0,6.79.71,6.8.53,0,3.66-6.59,3.48-7.3,6-9.64a7.53,7.53,0,0,1,5.2-2.35,5,5,0,0,1,4.72,2.8c1,1.87,1.66,5,2.05,9.45a47,47,0,0,0,1.18,8,5.2,5.2,0,0,0,2.57,3.57,2.26,2.26,0,0,1,1.46,2.11,3.41,3.41,0,0,1-1.67,2.54,5.53,5.53,0,0,1-3.4,1.27,5.17,5.17,0,0,1-4.67-2.94q-1.68-3-2.27-11.82a38.61,38.61,0,0,0-.69-5.67c-.24-.93-.61-1.4-1.1-1.4s-1,.7-1.87,2.1-2.24,4.17-4.25,8.33a37.87,37.87,0,0,1-4.59,7.86,5.45,5.45,0,0,1-4.11,2.22,5.3,5.3,0,0,1-3.41-1.46q-1.73-1.47-1.86-10.64-.15-8.18-1.06-8.17-1.23,0-5.92,7.26A83.82,83.82,0,0,0,282,141.81Z"/><path class="cls-3" d="M360.51,133.46q0,3-5.13,7.28A17.65,17.65,0,0,1,343.81,145a10,10,0,0,1-7.79-3.12q-2.85-3.12-2.85-8.69A24,24,0,0,1,339,117.79q5.79-7.19,12.39-7.18a7,7,0,0,1,7.26,7q0,5.1-4.89,9.71a26.53,26.53,0,0,1-12.54,6.38,1,1,0,0,0-.88,1.05,3.82,3.82,0,0,0,1.25,2.68,4.44,4.44,0,0,0,3.32,1.28q5.89,0,11.69-6.07a3.12,3.12,0,0,1,2.17-1.17C359.92,131.5,360.51,132.15,360.51,133.46Zm-19.66-5.18a17.82,17.82,0,0,0,8.16-4q3.53-3,3.53-5.48a2.47,2.47,0,0,0-.54-1.62,1.72,1.72,0,0,0-1.39-.66q-2.55,0-5.66,3.75A19.37,19.37,0,0,0,340.85,128.28Z"/><path class="cls-3" d="M373.11,141.81a3.05,3.05,0,0,1-3.37,3q-3.84,0-3.84-5.54a103.06,103.06,0,0,1,1-15.32,64.89,64.89,0,0,0,.76-9.73,2.59,2.59,0,0,1,2.78-2.69q4.39,0,4.4,5.33a60.42,60.42,0,0,1-1.56,8.82,32.5,32.5,0,0,0-.94,6.12q8.38-18.39,15.12-18.4a5.25,5.25,0,0,1,4.38,2.17q1.67,2.18,1.72,9.61c0,4.53.25,6.8.7,6.8s1.57-2.2,3.66-6.59q3.5-7.3,6-9.64a7.55,7.55,0,0,1,5.2-2.35,5,5,0,0,1,4.72,2.8q1.47,2.81,2.05,9.45a45.84,45.84,0,0,0,1.19,8,5.19,5.19,0,0,0,2.56,3.57,2.25,2.25,0,0,1,1.47,2.11,3.44,3.44,0,0,1-1.67,2.54,5.58,5.58,0,0,1-3.4,1.27,5.2,5.2,0,0,1-4.68-2.94q-1.68-3-2.27-11.82a39.08,39.08,0,0,0-.68-5.67c-.25-.93-.62-1.4-1.1-1.4s-1.06.7-1.88,2.1-2.23,4.17-4.25,8.33a37.48,37.48,0,0,1-4.58,7.86,5.47,5.47,0,0,1-4.12,2.22,5.3,5.3,0,0,1-3.41-1.46q-1.71-1.47-1.86-10.64-.15-8.18-1.06-8.17-1.23,0-5.91,7.26A83,83,0,0,0,373.11,141.81Z"/><path class="cls-3" d="M428.3,115.09q2.85-16.84,4.09-20a4.4,4.4,0,0,1,4.35-3.1c1.6,0,2.4,1.41,2.4,4.25q0,2.89-2.4,12-1.26,4.5-3.05,13.65a35.07,35.07,0,0,1,7.93-7.82c2.86-2,5.41-3,7.66-3a5.57,5.57,0,0,1,4.58,2.36,8.78,8.78,0,0,1,1.83,5.55q0,9-6.92,17T434,144a8,8,0,0,1-4.36-1.27,4.53,4.53,0,0,1-2.29-3.27A2.69,2.69,0,0,0,427,138c-.21-.23-.44-.48-.67-.76a3.36,3.36,0,0,1-.85-2.46,61.55,61.55,0,0,1,.91-7.56Zm3.46,20.8c.82,1.37,1.74,2.06,2.75,2.06,1.84,0,3.87-.85,6.11-2.54a21.54,21.54,0,0,0,5.83-7.13q2.48-4.61,2.48-7.65c0-1.93-.31-2.9-.91-2.9q-4.66,0-10.46,6.81T431.76,135.89Z"/><path class="cls-3" d="M486.4,133.46q0,3-5.13,7.28A17.67,17.67,0,0,1,469.7,145a10,10,0,0,1-7.8-3.12q-2.83-3.12-2.84-8.69a24.06,24.06,0,0,1,5.8-15.38q5.81-7.19,12.4-7.18a7,7,0,0,1,7.26,7q0,5.1-4.89,9.71a26.53,26.53,0,0,1-12.54,6.38,1,1,0,0,0-.88,1.05,3.82,3.82,0,0,0,1.25,2.68,4.42,4.42,0,0,0,3.32,1.28q5.89,0,11.69-6.07a3.12,3.12,0,0,1,2.17-1.17C485.81,131.5,486.4,132.15,486.4,133.46Zm-19.66-5.18a17.92,17.92,0,0,0,8.16-4q3.53-3,3.53-5.48a2.47,2.47,0,0,0-.54-1.62,1.74,1.74,0,0,0-1.4-.66c-1.69,0-3.58,1.25-5.65,3.75A19.37,19.37,0,0,0,466.74,128.28Z"/><path class="cls-3" d="M498.58,129l.5-.94a50.24,50.24,0,0,1,7.63-11.56q4.1-4.42,8-4.43a7.15,7.15,0,0,1,4.88,1.64,5,5,0,0,1,1.89,3.89,4.4,4.4,0,0,1-.65,2.42,2,2,0,0,1-1.79,1,4.62,4.62,0,0,1-3.31-1.49,2.92,2.92,0,0,0-1.67-1q-2.19,0-7.35,6.83a31.35,31.35,0,0,0-6.21,15.35,5.38,5.38,0,0,1-1.44,3.44,4.4,4.4,0,0,1-3,1,3,3,0,0,1-2.88-2.3,23.89,23.89,0,0,1-.85-7.51c0-1.43,0-3.35.12-5.77s.3-5.08.68-8.38c.09-.86.16-1.54.2-2a23.07,23.07,0,0,1,.6-4,4.21,4.21,0,0,1,1.57-2,4.36,4.36,0,0,1,2.72-.94,3.07,3.07,0,0,1,2.41.91,2.93,2.93,0,0,1,.82,2,25.73,25.73,0,0,1-1.32,5.71,24.56,24.56,0,0,0-.79,3.58Z"/><path class="cls-3" d="M211.64,191.75q-.27,0-1.66,6.54a61.37,61.37,0,0,0-1.39,7.91,7.72,7.72,0,0,0,.51,3.35,1.79,1.79,0,0,0,1.69.95,8.87,8.87,0,0,0,3.15-.57,16.1,16.1,0,0,0,4-2.56,4.41,4.41,0,0,1,2.58-1.26,1.91,1.91,0,0,1,1.36.48,1.51,1.51,0,0,1,.51,1.13q0,2.58-4.16,5.84a14,14,0,0,1-8.79,3.27,7.47,7.47,0,0,1-5.9-2.29q-2-2.28-2-6.56,0-3.94,3-15.79-1.87.21-2.61.21h-.61a5.17,5.17,0,0,1-2.74-.88,3.08,3.08,0,0,1-1.39-2.81c0-1.65.92-2.47,2.78-2.47l6.27-.23q1.23-3.54,2.61-9.29.81-3.57,3.72-3.57a3.29,3.29,0,0,1,2.52,1,3.15,3.15,0,0,1,.91,2.18c0,.32-.83,3.33-2.49,9.06q9.32-.83,10.22-.83a3.21,3.21,0,0,1,2,.46,2.33,2.33,0,0,1,.5,1.74c0,1.74-1.48,2.84-4.42,3.31Z"/><path class="cls-3" d="M255.38,200.69a23.46,23.46,0,0,1-7.46,11.56q-5.49,4.69-11,4.7a9.13,9.13,0,0,1-7.15-3.18A11.38,11.38,0,0,1,227,206q0-7.56,5.16-14.88t12.51-7.33a10.08,10.08,0,0,1,8.11,3.71,13.32,13.32,0,0,1,3.11,8.83,19.33,19.33,0,0,1-.5,4.37Zm-15.24-9.26a19,19,0,0,0-4,5.8,17.93,17.93,0,0,0-2,8,8,8,0,0,0,.89,4,2.66,2.66,0,0,0,2.36,1.58q3.63,0,7.56-4.3a14,14,0,0,0,3.92-9.67,8.92,8.92,0,0,0-1.27-5,4,4,0,0,0-3.56-1.94,5.79,5.79,0,0,0-3.9,1.49Z"/><path class="cls-3" d="M292.29,213.46a58.22,58.22,0,0,0-1,6.21l-1.41,11.52a7.07,7.07,0,0,1-1.36,3.89,3.28,3.28,0,0,1-2.48,1.09,3.84,3.84,0,0,1-2.5-1,2.82,2.82,0,0,1-1.19-2.18,24.14,24.14,0,0,1,.73-5.48,163.55,163.55,0,0,0,4.78-36.18v-.58a38.38,38.38,0,0,1,.22-5.23,4,4,0,0,1,1.26-2.3,4,4,0,0,1,2.94-1q3.19,0,3.2,4.89a51.75,51.75,0,0,1-.74,6.77l-.29,2a34.18,34.18,0,0,1,7.94-9.24Q307,183,310.63,183a7.49,7.49,0,0,1,5.58,2.35,8,8,0,0,1,2.3,5.88q0,9.47-7.34,17.22t-14.51,7.75C294.39,216.19,292.94,215.28,292.29,213.46Zm17.2-23.82q-3.57,0-9.27,7c-3.8,4.64-5.7,8.3-5.7,10.95a2.31,2.31,0,0,0,1,1.83,3.65,3.65,0,0,0,2.36.81q3.72,0,8.54-5.85t4.82-11.29a4.74,4.74,0,0,0-.56-2.62A1.52,1.52,0,0,0,309.49,189.64Z"/><path class="cls-3" d="M331.49,201l.5-.94a49.92,49.92,0,0,1,7.63-11.56q4.1-4.42,8-4.43a7.13,7.13,0,0,1,4.88,1.64,5,5,0,0,1,1.89,3.89,4.39,4.39,0,0,1-.64,2.42,2,2,0,0,1-1.79,1,4.62,4.62,0,0,1-3.31-1.49,2.92,2.92,0,0,0-1.67-1c-1.46,0-3.92,2.28-7.35,6.83a31.35,31.35,0,0,0-6.21,15.35A5.44,5.44,0,0,1,332,216.2a4.42,4.42,0,0,1-3,1,3,3,0,0,1-2.87-2.3,23.6,23.6,0,0,1-.85-7.51c0-1.43,0-3.35.12-5.77s.3-5.08.67-8.38c.1-.86.17-1.54.21-2a21.18,21.18,0,0,1,.6-3.95,4.15,4.15,0,0,1,1.57-2,4.34,4.34,0,0,1,2.72-.94,3,3,0,0,1,2.4.91,2.89,2.89,0,0,1,.82,2,26.11,26.11,0,0,1-1.31,5.71,24.46,24.46,0,0,0-.8,3.58Z"/><path class="cls-3" d="M382.29,200.69a23.44,23.44,0,0,1-7.45,11.56c-3.67,3.13-7.32,4.7-11,4.7a9.1,9.1,0,0,1-7.14-3.18A11.34,11.34,0,0,1,353.9,206q0-7.56,5.16-14.88t12.51-7.33a10.11,10.11,0,0,1,8.12,3.71,13.37,13.37,0,0,1,3.1,8.83,19.33,19.33,0,0,1-.5,4.37Zm-15.23-9.26a18.85,18.85,0,0,0-4,5.8,18.07,18.07,0,0,0-2,8,8,8,0,0,0,.9,4,2.64,2.64,0,0,0,2.35,1.58q3.63,0,7.56-4.3a14,14,0,0,0,3.93-9.67,8.92,8.92,0,0,0-1.28-5,4,4,0,0,0-3.56-1.94,5.77,5.77,0,0,0-3.89,1.49Z"/><path class="cls-3" d="M408.48,206.58a28,28,0,0,1-7.57,6,16.23,16.23,0,0,1-7.46,2.36,6.29,6.29,0,0,1-4.81-1.82,7,7,0,0,1-1.72-5q0-4.55,3.44-10.11a32.09,32.09,0,0,1,9.55-9.68c4.08-2.75,7.74-4.12,11-4.12a7.52,7.52,0,0,1,4.65,1.47c.32.23.59.43.82.58a4.54,4.54,0,0,1,1.31,1.83,5.63,5.63,0,0,1,.6,2.16,19,19,0,0,1-1.11,3.54,31.32,31.32,0,0,0-1.6,6.08c-.3,2-.91,6.86-1.8,14.69q-1.2,10.23-5.72,15t-10,4.71a19,19,0,0,1-11.2-3.88c-3.62-2.59-5.44-4.72-5.44-6.4a2,2,0,0,1,2.17-2.23c.57,0,1.72.57,3.46,1.7q6.68,4.4,11.45,4.4,3.64,0,6.1-4.56T408.48,206.58Zm.71-16.29c-1.45,0-3.34.86-5.69,2.59a28.42,28.42,0,0,0-6.5,7q-3,4.4-3,7.29,0,1.53,1.11,1.53a11.76,11.76,0,0,0,7.5-3.07,26,26,0,0,0,6-7q2.3-4,2.29-6a2.44,2.44,0,0,0-.52-1.64A1.57,1.57,0,0,0,409.19,190.29Z"/><path class="cls-3" d="M430.08,201l.49-.94a49.93,49.93,0,0,1,7.64-11.56q4.08-4.42,8-4.43a7.15,7.15,0,0,1,4.88,1.64,5,5,0,0,1,1.89,3.89,4.4,4.4,0,0,1-.65,2.42,2,2,0,0,1-1.79,1,4.62,4.62,0,0,1-3.31-1.49,2.92,2.92,0,0,0-1.67-1q-2.19,0-7.35,6.83A31.35,31.35,0,0,0,432,212.76a5.38,5.38,0,0,1-1.44,3.44,4.4,4.4,0,0,1-3,1,3,3,0,0,1-2.87-2.3,23.6,23.6,0,0,1-.85-7.51c0-1.43,0-3.35.11-5.77s.31-5.08.68-8.38c.09-.86.16-1.54.2-2a23.07,23.07,0,0,1,.6-3.95,4.21,4.21,0,0,1,1.57-2,4.36,4.36,0,0,1,2.72-.94,3.07,3.07,0,0,1,2.41.91,2.93,2.93,0,0,1,.82,2,25.73,25.73,0,0,1-1.32,5.71,24.56,24.56,0,0,0-.79,3.58Z"/><path class="cls-3" d="M479.7,205.46q0,3-5.12,7.28A17.67,17.67,0,0,1,463,217a10,10,0,0,1-7.8-3.12q-2.83-3.12-2.84-8.69a24,24,0,0,1,5.8-15.38q5.81-7.18,12.39-7.18a7,7,0,0,1,7.27,7q0,5.1-4.89,9.71a26.58,26.58,0,0,1-12.54,6.38,1,1,0,0,0-.88,1.05,3.81,3.81,0,0,0,1.24,2.68,4.44,4.44,0,0,0,3.33,1.28q5.9,0,11.69-6.07A3.1,3.1,0,0,1,478,203.5C479.12,203.5,479.7,204.15,479.7,205.46Zm-19.65-5.18a17.92,17.92,0,0,0,8.16-4q3.53-3,3.53-5.48a2.43,2.43,0,0,0-.55-1.62,1.71,1.71,0,0,0-1.39-.66q-2.55,0-5.65,3.75A19.37,19.37,0,0,0,460.05,200.28Z"/><path class="cls-3" d="M498.37,208.1c-.08-1.06-1.76-2.34-5-3.87-4-1.93-6.59-3.6-7.71-5a7.2,7.2,0,0,1-1.67-4.56q0-5.19,5.82-9.07t10.85-3.88q5,0,4.95,4.31a2.62,2.62,0,0,1-1.12,2.05,3.35,3.35,0,0,1-1.92.91,3.28,3.28,0,0,1-1.15-.41,3,3,0,0,0-1.26-.41,11.86,11.86,0,0,0-5.74,1.76c-2.09,1.17-3.13,2.53-3.13,4.1a3.09,3.09,0,0,0,1.11,2.21,18.79,18.79,0,0,0,4.54,2.68q5.07,2.4,6.68,4.34a6.46,6.46,0,0,1,1.61,4.27q0,4.28-5.78,7.14a29,29,0,0,1-13,2.85q-5.3,0-5.3-3.83a3.14,3.14,0,0,1,1.11-2.41,3.68,3.68,0,0,1,2.49-1,5.73,5.73,0,0,1,1.73.41,6.3,6.3,0,0,0,2.17.44,20.81,20.81,0,0,0,5.77-.88A7.69,7.69,0,0,0,498.37,208.1Z"/><path class="cls-3" d="M523.71,208.1c-.08-1.06-1.76-2.34-5-3.87q-6-2.89-7.71-5a7.2,7.2,0,0,1-1.67-4.56q0-5.19,5.82-9.07T526,181.73c3.3,0,5,1.44,5,4.31a2.63,2.63,0,0,1-1.13,2.05,3.3,3.3,0,0,1-1.92.91,3.19,3.19,0,0,1-1.14-.41,3.07,3.07,0,0,0-1.26-.41,11.86,11.86,0,0,0-5.75,1.76c-2.09,1.17-3.13,2.53-3.13,4.1a3.09,3.09,0,0,0,1.11,2.21,18.79,18.79,0,0,0,4.54,2.68q5.07,2.4,6.68,4.34a6.46,6.46,0,0,1,1.61,4.27q0,4.28-5.78,7.14a29,29,0,0,1-13,2.85q-5.31,0-5.31-3.83a3.11,3.11,0,0,1,1.12-2.41,3.65,3.65,0,0,1,2.49-1,5.69,5.69,0,0,1,1.72.41,6.35,6.35,0,0,0,2.17.44,20.81,20.81,0,0,0,5.77-.88C521.74,209.68,523.06,209,523.71,208.1Z"/></svg>